<svg width="24" height="24" viewBox="0 0 24 24" fill="none" xmlns="http://www.w3.org/2000/svg">
    <path d="M5.30245 5.30218C4.90206 5.70257 4.90539 6.35506 5.30578 6.75546L10.5559 12.0056L5.29844 17.263C4.89805 17.6634 4.90177 18.3088 5.30216 18.7092C5.70256 19.1096 6.348 19.1134 6.74839 18.713L12.0058 13.4555L17.263 18.7127C17.6634 19.1131 18.3089 19.1094 18.7092 18.709C19.1096 18.3086 19.1134 17.6631 18.713 17.2627L13.4558 12.0056L18.7126 6.74871C19.113 6.34832 19.1093 5.70288 18.7089 5.30249C18.3085 4.9021 17.6631 4.89837 17.2627 5.29876L12.0058 10.5556L6.74865 5.29842C6.34826 4.89803 5.70285 4.90179 5.30245 5.30218Z" fill="#333333"/>
</svg>
