<svg width="22" height="24" viewBox="0 0 22 24" fill="none" xmlns="http://www.w3.org/2000/svg">
    <path fill-rule="evenodd" clip-rule="evenodd" d="M14 12C14 14.2091 12.2091 16 10 16C7.79086 16 6 14.2091 6 12C6 9.79086 7.79086 8 10 8C12.2091 8 14 9.79086 14 12ZM12 12C12 13.1046 11.1046 14 10 14C8.89543 14 8 13.1046 8 12C8 10.8954 8.89543 10 10 10C11.1046 10 12 10.8954 12 12Z" fill="#333333"/>
    <path fill-rule="evenodd" clip-rule="evenodd" d="M11.9609 2C12.2941 2 12.5748 2.1907 12.7128 2.46102C12.727 2.48885 12.7401 2.5183 12.7511 2.54768C12.8052 2.69155 12.8208 2.85268 12.7863 3.0169C12.6004 3.90107 13.7468 4.41894 14.2874 3.69506L14.3509 3.61004C14.417 3.52159 14.4962 3.44968 14.5836 3.39467C14.6404 3.35895 14.7006 3.33036 14.763 3.30899L14.7662 3.30789C15.0664 3.20626 15.4145 3.2719 15.6584 3.51579L18.4848 6.34224C18.7285 6.58594 18.7942 6.93368 18.6928 7.23372L18.6917 7.23697C18.6703 7.29957 18.6416 7.36007 18.6057 7.41707C18.5507 7.50435 18.4789 7.58344 18.3906 7.6494L18.3054 7.71302C17.5817 8.25349 18.0994 9.39953 18.9834 9.21372C19.1475 9.17921 19.3085 9.19474 19.4523 9.2488C19.482 9.25993 19.5108 9.27271 19.5389 9.28701C19.8088 9.42512 20 9.70598 20 10.0388V13.9611C20 14.294 19.8095 14.5746 19.5395 14.7127C19.5115 14.7269 19.4819 14.74 19.4524 14.7511C19.3085 14.8052 19.1475 14.8208 18.9833 14.7863C18.0993 14.6004 17.5815 15.7465 18.3052 16.2871L18.3902 16.3505C18.4786 16.4166 18.5505 16.4958 18.6055 16.5833C18.6413 16.6402 18.6699 16.7005 18.6913 16.763L18.6924 16.7662C18.7938 17.0662 18.7281 17.414 18.4844 17.6577L15.6578 20.4843C15.4141 20.728 15.0663 20.7937 14.7662 20.6923L14.763 20.6912C14.7006 20.6698 14.6403 20.6412 14.5834 20.6055C14.4959 20.5505 14.4167 20.4785 14.3506 20.3901L14.2872 20.3052C13.7466 19.5814 12.6005 20.0992 12.7863 20.9832C12.8208 21.1474 12.8052 21.3085 12.7512 21.4523C12.7401 21.4818 12.7273 21.5106 12.7131 21.5386C12.575 21.8087 12.2941 22 11.961 22H8.03881C7.70598 22 7.42556 21.8097 7.28744 21.5398C7.27312 21.5117 7.25992 21.482 7.24878 21.4523C7.19473 21.3085 7.17921 21.1475 7.21371 20.9834C7.39952 20.0995 6.2535 19.5818 5.71306 20.3055L5.64974 20.3902C5.58365 20.4787 5.50437 20.5507 5.41688 20.6057C5.35993 20.6415 5.29951 20.6701 5.23699 20.6915L5.23376 20.6926C4.93386 20.7938 4.58635 20.728 4.34279 20.4845L1.51613 17.6578C1.27238 17.4141 1.2067 17.0662 1.30814 16.7661L1.30924 16.7629C1.33055 16.7007 1.35906 16.6405 1.39468 16.5838C1.44973 16.4962 1.52175 16.4168 1.61037 16.3506L1.695 16.2874C2.41887 15.7468 1.90101 14.6004 1.01686 14.7863C0.852668 14.8208 0.691554 14.8052 0.547705 14.7511C0.518283 14.7401 0.489582 14.7274 0.461726 14.7132C0.191447 14.5751 0 14.2941 0 13.9609V10.039C0 9.70595 0.190533 9.42537 0.46066 9.2873C0.488596 9.27305 0.518169 9.25993 0.547681 9.24884C0.691507 9.19475 0.852592 9.17921 1.01676 9.21372C1.9008 9.39955 2.41862 8.25335 1.69482 7.7128L1.6099 7.64938C1.52144 7.58332 1.44952 7.50406 1.39451 7.4166C1.35875 7.35975 1.33013 7.29943 1.30876 7.23701L1.30767 7.23378C1.20624 6.93371 1.27193 6.58589 1.51566 6.34216L4.34217 3.51565C4.5859 3.27192 4.9337 3.20624 5.23377 3.30766L5.23699 3.30876C5.29939 3.33012 5.3597 3.35873 5.41654 3.39448C5.50403 3.4495 5.58331 3.52144 5.64939 3.60993L5.71274 3.69476C6.25326 4.41861 7.39952 3.90083 7.2137 3.01675C7.1792 2.85261 7.19473 2.69156 7.2488 2.54775C7.2599 2.51821 7.27262 2.48941 7.28688 2.46145C7.42496 2.19132 7.70594 2 8.03897 2H11.9609ZM4.99684 5.68941C6.55972 6.58702 8.64734 5.70387 9.13431 4H10.8656C11.3525 5.70419 13.4406 6.58751 15.0036 5.68949L16.311 6.99681C15.4132 8.55962 16.2962 10.6472 18 11.1343V12.8657C16.2962 13.3526 15.413 15.4401 16.3106 17.003L15.0031 18.3106C13.4402 17.413 11.3526 18.2962 10.8657 20H9.13427C8.64725 18.2965 6.56014 17.4135 4.99742 18.3107L3.68977 17.003C4.58722 15.4401 3.70393 13.3525 2 12.8656L2 11.1343C3.70387 10.6474 4.58706 8.55975 3.68941 6.99684L4.99684 5.68941Z" fill="#333333"/>
</svg>
