<!-- icon666.com - MILLIONS OF FREE VECTOR ICONS --><svg xmlns="http://www.w3.org/2000/svg" id="Line_flat" data-name="Line flat" viewBox="0 0 128 128"><defs><style>.cls-1{fill:#bac2d3;}.cls-2{fill:#2f3a5a;}.cls-3{opacity:0.5;}.cls-4{fill:#9297ab;}.cls-5{fill:#6bb3d9;}.cls-6{fill:#dbe2eb;}</style></defs><path class="cls-1" d="M43.848,14.887l-4.84,21.9H88.992l-4.84-21.9A3.518,3.518,0,0,0,80.733,12.2H47.267A3.518,3.518,0,0,0,43.848,14.887Z"></path><path class="cls-2" d="M88.992,37.786H39.008a1,1,0,0,1-.976-1.216l4.839-21.9,0-.021a4.507,4.507,0,0,1,4.391-3.45H80.733a4.507,4.507,0,0,1,4.391,3.45l4.844,21.92a1,1,0,0,1-.976,1.216Zm-48.739-2H87.747L83.176,15.1a2.507,2.507,0,0,0-2.443-1.9H47.267a2.511,2.511,0,0,0-2.445,1.913Z"></path><rect class="cls-1" x="1" y="33.323" width="126" height="80.478" rx="8.038"></rect><g class="cls-3"><path class="cls-4" d="M127,41.36v64.4a8.04,8.04,0,0,1-8.04,8.04H9.04a8.034,8.034,0,0,1-7.59-5.39h115.8a4.01,4.01,0,0,0,4.01-4.01V33.65A8.049,8.049,0,0,1,127,41.36Z"></path></g><path class="cls-2" d="M118.962,114.8H9.038A9.047,9.047,0,0,1,0,105.763V41.36a9.048,9.048,0,0,1,9.038-9.038H118.962A9.048,9.048,0,0,1,128,41.36v64.4A9.047,9.047,0,0,1,118.962,114.8ZM9.038,34.322A7.046,7.046,0,0,0,2,41.36v64.4A7.045,7.045,0,0,0,9.038,112.8H118.962A7.045,7.045,0,0,0,126,105.763V41.36a7.046,7.046,0,0,0-7.038-7.038Z"></path><circle class="cls-4" cx="64" cy="73.561" r="28.877" transform="translate(-33.271 66.8) rotate(-45)"></circle><path class="cls-2" d="M64,103.438A29.877,29.877,0,1,1,93.877,73.562,29.91,29.91,0,0,1,64,103.438Zm0-57.753A27.877,27.877,0,1,0,91.877,73.562,27.908,27.908,0,0,0,64,45.685Z"></path><circle class="cls-5" cx="64" cy="73.561" r="19.226" transform="translate(-33.271 66.8) rotate(-45)"></circle><path class="cls-2" d="M64,93.787A20.226,20.226,0,1,1,84.226,73.562,20.248,20.248,0,0,1,64,93.787Zm0-38.452A18.226,18.226,0,1,0,82.226,73.562,18.247,18.247,0,0,0,64,55.335Z"></path><rect class="cls-6" x="102.337" y="42.507" width="15.489" height="7.618"></rect><path class="cls-2" d="M117.826,51.124H102.337a1,1,0,0,1-1-1V42.507a1,1,0,0,1,1-1h15.489a1,1,0,0,1,1,1v7.617A1,1,0,0,1,117.826,51.124Zm-14.489-2h13.489V43.507H103.337Z"></path><rect class="cls-4" x="15.829" y="27.682" width="14.077" height="5.64"></rect><path class="cls-2" d="M29.906,34.322H15.829a1,1,0,0,1-1-1V27.683a1,1,0,0,1,1-1H29.906a1,1,0,0,1,1,1v5.639A1,1,0,0,1,29.906,34.322Zm-13.077-2H28.906V28.683H16.829Z"></path><rect class="cls-6" x="53.432" y="18.571" width="21.136" height="8.111"></rect><path class="cls-2" d="M74.568,27.683H53.432a1,1,0,0,1-1-1V18.571a1,1,0,0,1,1-1H74.568a1,1,0,0,1,1,1v8.112A1,1,0,0,1,74.568,27.683Zm-20.136-2H73.568V19.571H54.432Z"></path></svg>